<svg id="CTA-btn-phone" xmlns="http://www.w3.org/2000/svg" width="500" height="80" viewBox="0 0 500 80">
  <rect id="box" width="500" height="80" rx="40" fill="#639ce6"/>
  <g id="txt" transform="translate(-451 -3418)">
    <text id="_03-0000-0000" data-name="03-0000-0000" transform="translate(720 3468)" fill="#fff" font-size="30" font-family="Roboto-Bold, Roboto" font-weight="700"><tspan x="-97.69" y="0">03-0000-0000</tspan></text>
    <g id="icon-phone" transform="translate(584 3443.737)">
      <path id="icon" d="M24.126,20.2a2.284,2.284,0,0,0-3.093.619c-1.142,1.38-2.522,3.664-7.708-1.523s-2.95-6.614-1.57-7.756a2.284,2.284,0,0,0,.619-3.093L9.137,3.5c-.428-.619-1-1.618-2.332-1.427A6.5,6.5,0,0,0,2,8.5C2,12.78,5.378,18.014,9.994,22.63s9.85,7.946,14.084,7.946A6.9,6.9,0,0,0,30.5,25.818c.143-.952-.809-1.9-1.427-2.332Z" transform="translate(-2 -2.05)" fill="#fff"/>
    </g>
  </g>
</svg>
